HIERARCHY
ROOT Hips
{
    OFFSET 0.000000 0.000000 0.000000
    CHANNELS 6 Xposition Yposition Zposition Zrotation Xrotation Yrotation
    JOINT Spine
    {
        OFFSET 0.000000 7.841939 0.000000
        CHANNELS 3 Zrotation Xrotation Yrotation
        JOINT Spine1
        {
            OFFSET -0.000000 21.266273 0.000000
            CHANNELS 3 Zrotation Xrotation Yrotation
            JOINT Neck
            {
                OFFSET 0.000000 22.362072 -0.000000
                CHANNELS 3 Zrotation Xrotation Yrotation
                JOINT Head
                {
                    OFFSET -0.000000 13.885474 1.867090
                    CHANNELS 3 Zrotation Xrotation Yrotation
                    End Site
                    {
                        OFFSET 0.000000 18.670868 0.000000
                    }
                }
            }
            JOINT LeftShoulder
            {
                OFFSET 3.727630 15.832895 -0.446436
                CHANNELS 3 Zrotation Xrotation Yrotation
                JOINT LeftArm
                {
                    OFFSET 15.415399 0.000006 0.000000
                    CHANNELS 3 Zrotation Xrotation Yrotation
                    JOINT LeftForeArm
                    {
                        OFFSET 23.524698 0.000000 -0.000000
                        CHANNELS 3 Zrotation Xrotation Yrotation
                        JOINT LeftHand
                        {
                            OFFSET 24.079306 0.000006 0.000001
                            CHANNELS 3 Zrotation Xrotation Yrotation
                            JOINT LeftHandThumb1
                            {
                                OFFSET 1.951111 -2.217166 3.104029
                                CHANNELS 3 Zrotation Xrotation Yrotation
                                JOINT LeftHandThumb2
                                {
                                    OFFSET 2.946850 -0.000001 0.000000
                                    CHANNELS 3 Zrotation Xrotation Yrotation
                                    JOINT LeftHandThumb3
                                    {
                                        OFFSET 2.518699 0.000001 -0.000002
                                        CHANNELS 3 Zrotation Xrotation Yrotation
                                        End Site
                                        {
                                            OFFSET 2.351316 0.000000 0.000000
                                        }
                                    }
                                }
                            }
                            JOINT LeftHandIndex1
                            {
                                OFFSET 7.981797 0.000004 3.104029
                                CHANNELS 3 Zrotation Xrotation Yrotation
                                JOINT LeftHandIndex2
                                {
                                    OFFSET 4.434329 0.000001 -0.000001
                                    CHANNELS 3 Zrotation Xrotation Yrotation
                                    JOINT LeftHandIndex3
                                    {
                                        OFFSET 2.217171 0.000004 -0.000002
                                        CHANNELS 3 Zrotation Xrotation Yrotation
                                        End Site
                                        {
                                            OFFSET 2.069824 0.000000 0.000000
                                        }
                                    }
                                }
                            }
                            JOINT LeftHandMiddle1
                            {
                                OFFSET 7.981800 0.000003 1.028759
                                CHANNELS 3 Zrotation Xrotation Yrotation
                                JOINT LeftHandMiddle2
                                {
                                    OFFSET 4.877760 0.000000 0.000000
                                    CHANNELS 3 Zrotation Xrotation Yrotation
                                    JOINT LeftHandMiddle3
                                    {
                                        OFFSET 2.660600 -0.000003 -0.000000
                                        CHANNELS 3 Zrotation Xrotation Yrotation
                                        End Site
                                        {
                                            OFFSET 2.483785 0.000000 0.000000
                                        }
                                    }
                                }
                            }
                            JOINT LeftHandRing1
                            {
                                OFFSET 7.538362 -0.000000 -1.028761
                                CHANNELS 3 Zrotation Xrotation Yrotation
                                JOINT LeftHandRing2
                                {
                                    OFFSET 4.434332 -0.000006 -0.000000
                                    CHANNELS 3 Zrotation Xrotation Yrotation
                                    JOINT LeftHandRing3
                                    {
                                        OFFSET 2.217170 -0.000005 0.000000
                                        CHANNELS 3 Zrotation Xrotation Yrotation
                                        End Site
                                        {
                                            OFFSET 2.069824 0.000000 0.000000
                                        }
                                    }
                                }
                            }
                            JOINT LeftHandPinky1
                            {
                                OFFSET 7.094930 -0.000002 -3.104030
                                CHANNELS 3 Zrotation Xrotation Yrotation
                                JOINT LeftHandPinky2
                                {
                                    OFFSET 3.547459 0.000002 0.000001
                                    CHANNELS 3 Zrotation Xrotation Yrotation
                                    JOINT LeftHandPinky3
                                    {
                                        OFFSET 1.773729 -0.000005 -0.000001
                                        CHANNELS 3 Zrotation Xrotation Yrotation
                                        End Site
                                        {
                                            OFFSET 1.655854 0.000000 0.000000
                                        }
                                    }
                                }
                            }
                        }
                    }
                }
            }
            JOINT RightShoulder
            {
                OFFSET -3.727629 15.832904 -0.446436
                CHANNELS 3 Zrotation Xrotation Yrotation
                JOINT RightArm
                {
                    OFFSET -15.415396 -0.000006 -0.000000
                    CHANNELS 3 Zrotation Xrotation Yrotation
                    JOINT RightForeArm
                    {
                        OFFSET -23.524696 -0.000005 0.000000
                        CHANNELS 3 Zrotation Xrotation Yrotation
                        JOINT RightHand
                        {
                            OFFSET -24.079292 0.000002 -0.000000
                            CHANNELS 3 Zrotation Xrotation Yrotation
                            JOINT RightHandThumb1
                            {
                                OFFSET -1.951107 -2.217166 3.104029
                                CHANNELS 3 Zrotation Xrotation Yrotation
                                JOINT RightHandThumb2
                                {
                                    OFFSET -2.946850 -0.000005 0.000002
                                    CHANNELS 3 Zrotation Xrotation Yrotation
                                    JOINT RightHandThumb3
                                    {
                                        OFFSET -2.518700 -0.000003 0.000002
                                        CHANNELS 3 Zrotation Xrotation Yrotation
                                        End Site
                                        {
                                            OFFSET -2.351316 0.000000 0.000000
                                        }
                                    }
                                }
                            }
                            JOINT RightHandIndex1
                            {
                                OFFSET -7.981794 0.000004 3.104029
                                CHANNELS 3 Zrotation Xrotation Yrotation
                                JOINT RightHandIndex2
                                {
                                    OFFSET -4.434332 -0.000002 0.000000
                                    CHANNELS 3 Zrotation Xrotation Yrotation
                                    JOINT RightHandIndex3
                                    {
                                        OFFSET -2.217168 0.000004 -0.000001
                                        CHANNELS 3 Zrotation Xrotation Yrotation
                                        End Site
                                        {
                                            OFFSET -2.069824 0.000000 0.000000
                                        }
                                    }
                                }
                            }
                            JOINT RightHandMiddle1
                            {
                                OFFSET -7.981797 -0.000005 1.028759
                                CHANNELS 3 Zrotation Xrotation Yrotation
                                JOINT RightHandMiddle2
                                {
                                    OFFSET -4.877761 -0.000005 -0.000001
                                    CHANNELS 3 Zrotation Xrotation Yrotation
                                    JOINT RightHandMiddle3
                                    {
                                        OFFSET -2.660600 0.000003 -0.000001
                                        CHANNELS 3 Zrotation Xrotation Yrotation
                                        End Site
                                        {
                                            OFFSET -2.483785 0.000000 0.000000
                                        }
                                    }
                                }
                            }
                            JOINT RightHandRing1
                            {
                                OFFSET -7.538356 0.000004 -1.028759
                                CHANNELS 3 Zrotation Xrotation Yrotation
                                JOINT RightHandRing2
                                {
                                    OFFSET -4.434331 0.000003 -0.000000
                                    CHANNELS 3 Zrotation Xrotation Yrotation
                                    JOINT RightHandRing3
                                    {
                                        OFFSET -2.217168 -0.000002 0.000000
                                        CHANNELS 3 Zrotation Xrotation Yrotation
                                        End Site
                                        {
                                            OFFSET -2.069824 0.000000 0.000000
                                        }
                                    }
                                }
                            }
                            JOINT RightHandPinky1
                            {
                                OFFSET -7.094926 -0.000002 -3.104029
                                CHANNELS 3 Zrotation Xrotation Yrotation
                                JOINT RightHandPinky2
                                {
                                    OFFSET -3.547456 -0.000003 -0.000000
                                    CHANNELS 3 Zrotation Xrotation Yrotation
                                    JOINT RightHandPinky3
                                    {
                                        OFFSET -1.773730 0.000004 0.000001
                                        CHANNELS 3 Zrotation Xrotation Yrotation
                                        End Site
                                        {
                                            OFFSET -1.655854 0.000000 0.000000
                                        }
                                    }
                                }
                            }
                        }
                    }
                }
            }
        }
    }
    JOINT LeftUpLeg
    {
        OFFSET 9.335429 0.000000 0.000000
        CHANNELS 3 Zrotation Xrotation Yrotation
        JOINT LeftLeg
        {
            OFFSET 0.000001 -40.546696 0.000000
            CHANNELS 3 Zrotation Xrotation Yrotation
            JOINT LeftFoot
            {
                OFFSET 0.000000 -40.233593 -0.000000
                CHANNELS 3 Zrotation Xrotation Yrotation
                JOINT LeftToeBase
                {
                    OFFSET 0.000001 -6.068030 14.003201
                    CHANNELS 3 Zrotation Xrotation Yrotation
                    End Site
                    {
                        OFFSET 0.000000 0.000000 3.734173
                    }
                }
            }
        }
    }
    JOINT RightUpLeg
    {
        OFFSET -9.335429 -0.000000 -0.000000
        CHANNELS 3 Zrotation Xrotation Yrotation
        JOINT RightLeg
        {
            OFFSET -0.000001 -40.546703 -0.000000
            CHANNELS 3 Zrotation Xrotation Yrotation
            JOINT RightFoot
            {
                OFFSET 0.000000 -40.233597 -0.000001
                CHANNELS 3 Zrotation Xrotation Yrotation
                JOINT RightToeBase
                {
                    OFFSET -0.000000 -6.068029 14.003200
                    CHANNELS 3 Zrotation Xrotation Yrotation
                    End Site
                    {
                        OFFSET 0.000000 0.000000 3.734173
                    }
                }
            }
        }
    }
}
MOTION
Frames:    4
Frame Time:    0.008333
-3.068568    90.479385    3.010824    1.294579    -0.663097    -0.030451    -0.010991    -3.269113    -0.192737    -0.055964    2.660256    -0.189619    2.166298    0.479462    -1.692846    1.945428    -0.542572    -1.656064    0.294469    1.361338    -2.408394    -1.825633    1.050488    -3.448425    -0.030051    -0.290774    -5.900404    -1.584820    0.153656    -4.569382    28.697567    36.280907    -42.816914    -22.867783    -4.684806    22.867779    -0.000000    0.000000    -0.000000    -0.030085    17.999952    -0.013038    -0.028612    0.000000    -0.000000    -0.028612    0.000000    -0.000000    -0.028612    -0.000000    -0.011166    -0.028612    -0.000000    0.000001    -0.028612    0.000000    -0.000006    -0.028612    -0.000000    0.007449    -0.028612    0.000000    0.000001    -0.028612    -0.000000    -0.000006    -0.030083    -17.999954    0.005598    -0.028612    -0.000000    0.000003    -0.028612    -0.000000    -0.000001    -1.751366    0.531387    2.125530    2.777391    0.074349    4.856421    0.270200    -2.266540    6.800086    3.378836    -0.793210    2.437119    -28.697569    36.280907    42.816921    22.867786    -4.684812    -22.867783    -0.000000    0.000000    -0.000000    0.030084    17.999947    0.013037    0.028613    0.000003    0.000004    0.028612    -0.000003    -0.000003    0.028611    0.000000    0.011164    0.028612    -0.000000    0.000003    0.028612    0.000000    -0.000001    0.028612    0.000000    -0.007450    0.028613    -0.000001    0.000001    0.028612    0.000000    0.000001    0.030084    -17.999954    -0.005595    0.028614    -0.000002    0.000000    0.028612    -0.000000    -0.000003    2.801038    -0.252423    2.060126    -0.000000    7.671028    0.000000    1.978872    -4.023448    7.306021    0.000001    -1.135410    0.000001    -2.191385    1.255434    -0.808414    -0.000000    5.425884    -0.000000    -3.213315    -3.079372    -6.440239    0.000000    -1.047590    0.000000    
-3.352556    90.455536    3.824652    1.382506    -1.350873    0.093928    -0.026012    -5.403739    -0.276213    -0.590278    5.356813    -0.218691    2.336716    1.337014    -1.857608    1.617982    -0.784066    -1.780526    1.315845    1.889821    -2.445776    -2.745796    1.710331    -3.389970    -0.046569    -0.416071    -6.386390    -3.136678    0.252770    -4.308558    28.684046    36.291023    -42.838669    -22.867785    -4.684804    22.867783    -0.000000    0.000000    -0.000000    -0.060019    17.999947    -0.026101    -0.057082    0.000003    -0.000003    -0.057082    -0.000000    -0.000000    -0.057081    0.000000    -0.022324    -0.057082    0.000000    -0.000002    -0.057080    -0.000000    0.000005    -0.057081    -0.000000    0.014884    -0.057082    0.000001    -0.000002    -0.057082    0.000000    0.000002    -0.060019    -17.999945    0.011216    -0.057080    -0.000001    0.000001    -0.057081    0.000000    0.000002    -3.143223    1.165573    1.783859    5.419241    0.517494    5.751015    0.560003    -4.086949    7.808992    5.640370    -1.643885    0.428546    -28.684046    36.291027    42.838661    22.867790    -4.684811    -22.867786    -0.000000    0.000000    -0.000000    0.060019    17.999941    0.026100    0.057081    -0.000001    -0.000003    0.057081    0.000002    0.000004    0.057080    0.000001    0.022322    0.057080    -0.000001    -0.000001    0.057081    0.000001    0.000001    0.057080    0.000001    -0.014885    0.057080    -0.000000    -0.000002    0.057083    -0.000001    0.000005    0.060018    -17.999943    -0.011221    0.057083    -0.000000    0.000001    0.057081    -0.000000    0.000001    2.994766    -0.779603    2.061944    -0.000000    11.746955    0.000000    1.650669    -6.253938    9.624034    -0.000001    -1.660963    -0.000001    -1.954449    1.683868    0.611524    0.000000    7.794392    -0.000000    -4.166714    -5.051053    -8.991778    0.000000    -1.525822    0.000001    
-3.531556    90.269264    4.362752    1.394821    -2.015902    0.333537    -0.055129    -7.589357    -0.417412    -1.124308    9.056350    -0.231686    2.902417    1.801150    -1.938548    1.288584    -1.685973    -1.807676    3.266834    2.022588    -2.829630    -3.880520    2.105501    -3.235544    -0.109583    -0.921313    -6.783327    -4.905079    0.178353    -3.713910    28.659767    36.309235    -42.877762    -22.867792    -4.684815    22.867792    -0.000000    0.000000    -0.000000    -0.113631    17.999924    -0.049640    -0.108069    -0.000004    0.000002    -0.108070    -0.000002    0.000003    -0.108070    -0.000000    -0.042374    -0.108070    -0.000000    -0.000001    -0.108070    -0.000000    -0.000001    -0.108070    0.000000    0.028249    -0.108069    -0.000001    0.000005    -0.108071    0.000001    -0.000001    -0.113631    -17.999922    0.021390    -0.108070    0.000000    -0.000003    -0.108070    -0.000004    -0.000001    -5.821320    1.260576    1.379031    8.970379    0.784698    6.836687    1.069816    -7.043808    8.658552    7.675449    -3.235736    -3.018169    -28.659765    36.309235    42.877758    22.867785    -4.684807    -22.867786    -0.000000    0.000000    -0.000000    0.113631    17.999924    0.049636    0.108070    -0.000000    0.000002    0.108070    0.000000    -0.000002    0.108069    0.000002    0.042373    0.108071    -0.000001    0.000002    0.108072    -0.000003    0.000002    0.108069    0.000001    -0.028251    0.108072    -0.000001    0.000002    0.108067    0.000001    -0.000004    0.113632    -17.999918    -0.021387    0.108070    -0.000002    0.000001    0.108066    0.000005    -0.000001    3.132172    -1.518616    2.267978    0.000000    15.837543    -0.000000    0.422349    -9.533291    11.107623    0.000000    -2.314311    -0.000000    -1.532106    2.050812    2.509193    0.000000    9.787106    -0.000000    -5.342999    -7.427778    -12.171051    0.000000    -1.987860    0.000000    
-3.665660    90.089188    4.519727    1.341743    -2.314017    0.654805    -0.088943    -9.100883    -0.562293    -1.382589    12.029020    -0.254999    3.496539    1.580611    -1.882976    0.888712    -3.204752    -1.731651    5.336076    1.666910    -3.386649    -5.412638    2.172949    -2.916040    -0.202625    -1.666048    -6.935279    -6.467367    -0.088372    -2.945126    28.626965    36.333942    -42.930706    -22.867792    -4.684811    22.867792    -0.000000    0.000000    -0.000000    -0.185825    17.999868    -0.081603    -0.176728    -0.000003    0.000004    -0.176731    0.000004    -0.000001    -0.176728    -0.000000    -0.069508    -0.176730    0.000000    -0.000001    -0.176729    0.000000    0.000001    -0.176731    0.000001    0.046337    -0.176729    0.000000    0.000001    -0.176727    -0.000002    0.000006    -0.185824    -17.999866    0.035260    -0.176728    0.000001    -0.000002    -0.176728    0.000002    0.000001    -8.922848    0.733684    0.911888    12.792330    0.938983    7.803978    1.632149    -10.283333    9.068844    8.398478    -5.096817    -6.892780    -28.626953    36.333935    42.930687    22.867792    -4.684812    -22.867783    -0.000000    0.000000    -0.000000    0.185824    17.999866    0.081599    0.176730    -0.000000    -0.000000    0.176729    0.000000    0.000000    0.176729    0.000000    0.069510    0.176730    0.000001    0.000001    0.176734    -0.000001    0.000000    0.176733    -0.000001    -0.046339    0.176729    0.000001    -0.000002    0.176729    -0.000002    0.000002    0.185824    -17.999863    -0.035258    0.176727    0.000004    -0.000000    0.176732    -0.000001    0.000000    3.428764    -2.229806    2.609457    -0.000000    18.398909    0.000000    -1.690196    -12.310913    10.988739    -0.000000    -2.774431    0.000000    -1.132179    2.256087    4.282734    -0.000000    10.639735    0.000001    -6.133061    -8.969514    -14.908800    0.000001    -2.132882    -0.000000    
